<?xml version="1.0" encoding="iso-8859-1"?>
<!-- Generator: Adobe Illustrator 16.0.0, SVG Export Plug-In . SVG Version: 6.00 Build 0)  -->
<!DOCTYPE svg PUBLIC "-//W3C//DTD SVG 1.1//EN" "http://www.w3.org/Graphics/SVG/1.1/DTD/svg11.dtd">
<svg version="1.1" id="Capa_1" xmlns="http://www.w3.org/2000/svg" xmlns:xlink="http://www.w3.org/1999/xlink" x="0px" y="0px"
	 width="31.666px" height="31.666px" viewBox="0 0 31.666 31.666" style="enable-background:new 0 0 31.666 31.666;"
	 xml:space="preserve">
<g>
	<g>
		<path d="M28.118,10.573c-0.014,0.035-0.03,0.067-0.046,0.103c0.019-0.031,0.038-0.061,0.056-0.091
			C28.125,10.581,28.12,10.577,28.118,10.573z"/>
		<path d="M15.081,29.559c-0.546,0.709-1.404,1.115-2.356,1.115c-0.765,0-1.533-0.266-2.164-0.75l-7.827-6.018
			c-0.169-0.131-0.323-0.274-0.465-0.428c0.233,0.785,0.702,1.494,1.379,2.014l6.951,5.342c0.699,0.537,1.554,0.832,2.407,0.832
			c1.101,0,2.1-0.479,2.74-1.312l13.382-17.417c0.543-0.705,0.689-1.721,0.696-2.567L15.081,29.559z"/>
		<path d="M2.904,23.686l7.828,6.019c0.582,0.446,1.289,0.692,1.993,0.692c0.865,0,1.644-0.366,2.136-1.008L29.814,9.926
			c-0.003-0.074-0.006-0.15-0.012-0.219c-0.07-0.912-0.47-2.623-1.652-3.533l-6.951-5.342C20.501,0.296,19.646,0,18.793,0
			c-0.972,0-1.658,0.35-2.112,0.697L2.143,19.617c-0.006,0.007-0.009,0.016-0.015,0.023c-0.262,0.606-0.381,1.33-0.196,2.207
			c0.11,0.604,0.14,0.764,0.177,0.973C2.318,23.146,2.583,23.439,2.904,23.686z M16.292,2.5c0.641-0.834,1.64-1.313,2.739-1.313
			c0.854,0,1.708,0.296,2.405,0.832l5.777,4.21c1.183,0.909,1.503,1.596,1.572,2.508c0.028,0.527-0.125,0.99-0.292,1.327
			l0.007,0.005l-0.036,0.057c-0.072,0.139-0.142,0.244-0.201,0.326l-0.428,0.685l-0.079,0.104c0.125-0.174,0.229-0.361,0.314-0.563
			c-0.029,0.055-0.058,0.109-0.098,0.161l-0.221,0.407L22.73,17.8l-0.721-0.552l-0.014,0.018l-9.075-6.973l-1.564-1.194L16.292,2.5z
			"/>
	</g>
</g>
<g>
</g>
<g>
</g>
<g>
</g>
<g>
</g>
<g>
</g>
<g>
</g>
<g>
</g>
<g>
</g>
<g>
</g>
<g>
</g>
<g>
</g>
<g>
</g>
<g>
</g>
<g>
</g>
<g>
</g>
</svg>
