<svg height="512" viewBox="0 0 512 512" width="512" xmlns="http://www.w3.org/2000/svg"><g><path d="m296 35.87v-19.87a8 8 0 0 0 -8-8h-64a8 8 0 0 0 -8 8v19.87c-95.62 18.71-168 103.12-168 204.13 0 95.3 64.42 175.82 152 200.33v23.67a8 8 0 0 0 8 8h16v24a8 8 0 0 0 8 8h48a8 8 0 0 0 8-8v-24h16a8 8 0 0 0 8-8v-23.67c87.58-24.51 152-105.03 152-200.33 0-101.01-72.38-185.42-168-204.13zm-64-11.87h48v8h-48zm40 464h-32v-16h32zm24-32h-80v-8h80zm-40-24c-105.87 0-192-86.13-192-192s86.13-192 192-192 192 86.13 192 192-86.13 192-192 192z"/><path d="m256 64c-97.05 0-176 78.95-176 176s78.95 176 176 176 176-78.95 176-176-78.95-176-176-176zm0 336c-88.22 0-160-71.78-160-160s71.78-160 160-160 160 71.78 160 160-71.78 160-160 160z"/><path d="m288 128h-88a8 8 0 0 0 -8 8v208a8 8 0 0 0 8 8h32a8 8 0 0 0 8-8v-80h48a48.051 48.051 0 0 0 48-48v-40a48.051 48.051 0 0 0 -48-48zm32 88a32.036 32.036 0 0 1 -32 32h-56a8 8 0 0 0 -8 8v80h-16v-192h80a32.036 32.036 0 0 1 32 32z"/><path d="m276 160h-44a8 8 0 0 0 -8 8v56a8 8 0 0 0 8 8h44a28.032 28.032 0 0 0 28-28v-16a28.032 28.032 0 0 0 -28-28zm12 44a12.013 12.013 0 0 1 -12 12h-36v-40h36a12.013 12.013 0 0 1 12 12z"/></g></svg>