<?xml version="1.0" encoding="iso-8859-1"?>
<!-- Generator: Adobe Illustrator 19.0.0, SVG Export Plug-In . SVG Version: 6.00 Build 0)  -->
<svg version="1.1" id="Layer_1" xmlns="http://www.w3.org/2000/svg" xmlns:xlink="http://www.w3.org/1999/xlink" x="0px" y="0px"
	 viewBox="0 0 512.036 512.036" style="enable-background:new 0 0 512.036 512.036;" xml:space="preserve">
<g>
	<g>
		<g>
			<path d="M478.002,288.284c-14.603-14.603-38.287-14.603-52.89,0L302.103,411.315c-2.553,2.554-4.417,5.714-5.415,9.184
				l-18.496,64.277c-4.639,16.122,10.288,31.044,26.409,26.398l64.256-18.517c3.467-0.999,6.625-2.862,9.176-5.413l123.029-123.008
				c14.605-14.604,14.605-38.288,0.001-52.891L478.002,288.284z M351.756,453.183l-21.89,6.308l6.302-21.902l115.389-115.409
				l15.611,15.611L351.756,453.183z"/>
			<path d="M490.685,0H213.351h-85.333H21.351C9.569,0,0.018,9.552,0.018,21.334v128v85.333v255.88c0,0.004,0,0.009,0,0.013v0.107
				c0,0.207,0.025,0.407,0.031,0.612c0.014,0.478,0.027,0.956,0.072,1.431c0.034,0.357,0.096,0.705,0.147,1.057
				c0.049,0.332,0.087,0.664,0.152,0.993c0.076,0.388,0.177,0.766,0.273,1.147c0.073,0.291,0.138,0.583,0.224,0.871
				c0.11,0.369,0.244,0.728,0.373,1.088c0.106,0.296,0.205,0.593,0.324,0.885c0.134,0.326,0.287,0.64,0.436,0.957
				c0.148,0.317,0.291,0.635,0.456,0.946c0.148,0.278,0.313,0.545,0.473,0.816c0.194,0.33,0.384,0.662,0.597,0.983
				c0.166,0.25,0.349,0.487,0.526,0.729c0.231,0.318,0.456,0.638,0.706,0.945c0.211,0.26,0.442,0.502,0.665,0.751
				c0.238,0.265,0.466,0.536,0.719,0.791c0.335,0.338,0.692,0.652,1.049,0.968c0.155,0.137,0.294,0.286,0.454,0.419
				c0.013,0.011,0.027,0.019,0.04,0.03c0.546,0.453,1.113,0.882,1.703,1.279c0.044,0.03,0.091,0.053,0.135,0.082
				c0.537,0.357,1.088,0.693,1.658,1.001c0.262,0.142,0.533,0.255,0.799,0.385c0.36,0.176,0.715,0.36,1.086,0.515
				c0.324,0.136,0.656,0.242,0.985,0.361c0.326,0.118,0.645,0.248,0.978,0.35c0.388,0.119,0.782,0.206,1.174,0.302
				c0.284,0.07,0.562,0.155,0.851,0.213c0.641,0.13,1.285,0.225,1.932,0.295c0.047,0.005,0.092,0.016,0.139,0.021
				c0.708,0.072,1.419,0.106,2.128,0.107c0.017,0,0.033,0.002,0.049,0.002h170.667c11.782,0,21.333-9.551,21.333-21.333
				s-9.551-21.333-21.333-21.333H66.899l77.508-93.009c3.195-3.834,4.945-8.667,4.945-13.657v-128
				c0-11.782-9.551-21.333-21.333-21.333H42.685v-42.667h85.333c11.782,0,21.333-9.551,21.333-21.333V42.667h42.667v170.667
				c0,18.226,21.379,28.059,35.217,16.198L445.243,42.667h24.108v170.667c0,11.782,9.551,21.333,21.333,21.333
				s21.333-9.551,21.333-21.333v-192C512.018,9.552,502.467,0,490.685,0z M106.685,256v98.943l-64,76.8V256H106.685z M106.685,128
				h-64V42.667h64V128z M234.685,166.95V42.667h144.997L234.685,166.95z"/>
		</g>
	</g>
</g>
<g>
</g>
<g>
</g>
<g>
</g>
<g>
</g>
<g>
</g>
<g>
</g>
<g>
</g>
<g>
</g>
<g>
</g>
<g>
</g>
<g>
</g>
<g>
</g>
<g>
</g>
<g>
</g>
<g>
</g>
</svg>
