<?xml version="1.0" encoding="iso-8859-1"?>
<!-- Generator: Adobe Illustrator 19.0.0, SVG Export Plug-In . SVG Version: 6.00 Build 0)  -->
<svg version="1.1" id="Layer_1" xmlns="http://www.w3.org/2000/svg" xmlns:xlink="http://www.w3.org/1999/xlink" x="0px" y="0px"
	 viewBox="0 0 512 512" style="enable-background:new 0 0 512 512;" xml:space="preserve">
<g>
	<g>
		<g>
			<path d="M337.066,183.428c0.227-0.304,0.463-0.601,0.674-0.917c0.203-0.303,0.379-0.618,0.565-0.93
				c0.171-0.286,0.35-0.565,0.508-0.86c0.17-0.318,0.314-0.645,0.467-0.969c0.145-0.307,0.298-0.609,0.428-0.923
				c0.13-0.315,0.235-0.636,0.35-0.956c0.121-0.337,0.25-0.67,0.355-1.015c0.097-0.32,0.168-0.645,0.249-0.968
				c0.089-0.351,0.187-0.698,0.258-1.056c0.074-0.375,0.118-0.753,0.172-1.13c0.044-0.311,0.104-0.618,0.135-0.933
				c0.138-1.4,0.138-2.811,0-4.211c-0.031-0.315-0.09-0.621-0.135-0.932c-0.054-0.378-0.098-0.756-0.173-1.13
				c-0.071-0.358-0.169-0.704-0.258-1.055c-0.081-0.324-0.152-0.649-0.249-0.969c-0.104-0.344-0.233-0.677-0.354-1.013
				c-0.115-0.32-0.22-0.642-0.35-0.957c-0.13-0.314-0.283-0.616-0.428-0.922c-0.153-0.325-0.297-0.652-0.467-0.97
				c-0.157-0.294-0.337-0.573-0.507-0.859c-0.186-0.312-0.362-0.627-0.565-0.931c-0.211-0.315-0.446-0.612-0.673-0.915
				c-0.19-0.254-0.367-0.515-0.57-0.762c-0.443-0.539-0.909-1.058-1.402-1.551c-0.004-0.004-0.007-0.008-0.011-0.012l-42.667-42.667
				c-8.331-8.331-21.839-8.331-30.17,0c-8.331,8.331-8.331,21.839,0,30.17l6.248,6.248H192c-11.782,0-21.333,9.551-21.333,21.333
				c0,11.782,9.551,21.333,21.333,21.333h76.497l-6.248,6.248c-8.331,8.331-8.331,21.839,0,30.17c8.331,8.331,21.839,8.331,30.17,0
				l42.667-42.667c0.004-0.004,0.007-0.008,0.011-0.012c0.492-0.493,0.959-1.012,1.402-1.551
				C336.7,183.942,336.876,183.682,337.066,183.428z"/>
			<path d="M256,0C161.743,0,85.333,76.41,85.333,170.667c0,36.171,16.404,85.458,45.533,145.996
				c9.462,19.664,20.13,40.18,31.788,61.31c16.545,29.987,34.246,59.731,51.946,87.915c6.197,9.867,11.954,18.839,17.128,26.751
				c3.12,4.772,5.365,8.148,6.587,9.96c8.429,12.493,26.802,12.545,35.302,0.099c1.226-1.795,3.473-5.136,6.596-9.861
				c5.177-7.831,10.938-16.718,17.138-26.498c17.71-27.935,35.42-57.473,51.973-87.328c12.308-22.199,23.51-43.751,33.352-64.385
				c28.161-59.042,43.991-107.612,43.991-143.959C426.667,76.41,350.257,0,256,0z M344.165,296.258
				c-9.443,19.797-20.248,40.587-32.156,62.064c-16.113,29.061-33.403,57.899-50.694,85.172c-1.78,2.807-3.521,5.538-5.222,8.188
				c-1.745-2.745-3.533-5.575-5.361-8.486c-17.299-27.545-34.598-56.614-50.72-85.835c-11.294-20.471-21.602-40.293-30.698-59.198
				C142.803,243.066,128,198.59,128,170.667c0-70.693,57.307-128,128-128s128,57.307,128,128
				C384,198.913,369.769,242.578,344.165,296.258z"/>
		</g>
	</g>
</g>
<g>
</g>
<g>
</g>
<g>
</g>
<g>
</g>
<g>
</g>
<g>
</g>
<g>
</g>
<g>
</g>
<g>
</g>
<g>
</g>
<g>
</g>
<g>
</g>
<g>
</g>
<g>
</g>
<g>
</g>
</svg>
