<svg id="map-delete" enable-background="new 0 0 300 300" height="512" viewBox="0 0 300 300" width="512" xmlns="http://www.w3.org/2000/svg"><g><path d="m232 177.956v-117.128c0-1.273-.605-2.469-1.629-3.223s-2.344-.975-3.562-.596l-62.809 19.628-62.809-19.627c-.773-.242-1.609-.242-2.383 0l-64 20c-1.671.521-2.808 2.068-2.808 3.818v168c0 1.273.605 2.469 1.629 3.223.695.512 1.527.777 2.371.777.398 0 .801-.061 1.191-.182l62.809-19.626 62.809 19.627c.773.242 1.609.242 2.383 0l17.797-5.562c8.131 13.029 22.556 21.744 39.012 21.744 25.363 0 46-20.635 46-46-.001-21.929-15.435-40.291-36.001-44.873zm-128-111.686 56 17.499v159.618l-56-17.499zm-64 17.5 56-17.5v159.618l-56 17.499zm128 159.617v-159.618l56-17.499v110.66c-.668-.029-1.325-.101-2-.101-25.363 0-46 20.635-46 46 0 6.018 1.194 11.753 3.304 17.026zm54 17.441c-20.953 0-38-17.047-38-38s17.047-38 38-38 38 17.047 38 38-17.047 38-38 38z"/><path d="m151.516 49.312c.781.781 1.805 1.172 2.828 1.172s2.047-.391 2.828-1.172l2.828-2.828 2.828 2.828c.781.781 1.805 1.172 2.828 1.172s2.047-.391 2.828-1.172c1.562-1.562 1.562-4.094 0-5.656l-2.828-2.828 2.828-2.828c1.562-1.562 1.562-4.094 0-5.656s-4.094-1.562-5.656 0l-2.828 2.828-2.828-2.828c-1.562-1.562-4.094-1.562-5.656 0s-1.562 4.094 0 5.656l2.828 2.828-2.828 2.828c-1.563 1.563-1.563 4.094 0 5.656z"/><path d="m78 55.357c2.501 0 4.53-2.028 4.53-4.529 0-2.502-2.028-4.53-4.53-4.53s-4.53 2.028-4.53 4.53 2.029 4.529 4.53 4.529z"/><path d="m241.801 203.031c-3.77-3.775-10.359-3.781-14.145-.002l-5.656 5.657-5.656-5.656c-3.785-3.781-10.379-3.773-14.141 0-3.898 3.898-3.898 10.244 0 14.143l5.656 5.656-5.656 5.656c-3.898 3.898-3.898 10.244-.004 14.141 3.77 3.779 10.363 3.783 14.145.002l5.656-5.656 5.656 5.656c1.891 1.889 4.398 2.93 7.07 2.93 2.676 0 5.188-1.041 7.07-2.93 3.898-3.898 3.898-10.244 0-14.143l-5.656-5.656 5.656-5.656c3.899-3.9 3.899-10.245.005-14.142zm-5.66 8.485-8.485 8.484c-1.562 1.562-1.562 4.094 0 5.656l8.484 8.484c.781.781.781 2.049-.004 2.832-.508.508-1.102.584-1.41.584s-.902-.076-1.414-.586l-8.484-8.486c-.75-.75-1.766-1.172-2.828-1.172s-2.078.422-2.828 1.172l-8.484 8.486c-.512.51-1.105.586-1.414.586s-.902-.076-1.414-.586c-.781-.781-.781-2.049 0-2.83l8.484-8.484c1.562-1.562 1.562-4.094 0-5.656l-8.484-8.484c-.781-.781-.781-2.049.004-2.832.508-.508 1.102-.584 1.41-.584s.902.076 1.414.586l8.484 8.486c1.5 1.5 4.156 1.5 5.656 0l8.484-8.486c.512-.51 1.105-.586 1.414-.586s.902.076 1.414.586c.782.781.782 2.048.001 2.83z"/></g></svg>