<svg id="Capa_1" enable-background="new 0 0 512 512" height="512" viewBox="0 0 512 512" width="512" xmlns="http://www.w3.org/2000/svg"><g><path d="m511.045 400.733-29.045-77.453v-247.28c0-24.813-20.187-45-45-45h-362c-24.813 0-45 20.187-45 45v247.28l-29.045 77.453c-.631 1.684-.955 3.468-.955 5.267v30c0 24.813 20.187 45 45 45h422c24.813 0 45-20.187 45-45v-30c0-1.799-.324-3.583-.955-5.267zm-451.045-324.733c0-8.271 6.729-15 15-15h362c8.271 0 15 6.729 15 15v235h-392zm-4.605 265h401.21l18.75 50h-438.71zm426.605 95c0 8.271-6.729 15-15 15h-422c-8.271 0-15-6.729-15-15v-15h452z"/><path d="m217.109 241.251c-5.858 5.858-5.858 15.355 0 21.213s15.355 5.858 21.213 0c9.748-9.747 25.607-9.747 35.355 0 5.858 5.858 15.355 5.858 21.213 0s5.858-15.355 0-21.213c-21.444-21.444-56.336-21.444-77.781 0z"/><path d="m256 165.142c-30.718 0-59.597 11.962-81.317 33.683-5.858 5.858-5.858 15.355 0 21.213s15.355 5.858 21.213 0c16.055-16.054 37.4-24.896 60.104-24.896s44.049 8.842 60.104 24.896c5.858 5.858 15.355 5.858 21.213 0s5.858-15.355 0-21.213c-21.72-21.721-50.599-33.683-81.317-33.683z"/><path d="m256 105.142c-46.744 0-90.69 18.203-123.744 51.256-5.858 5.858-5.858 15.355 0 21.213s15.355 5.858 21.213 0c56.536-56.535 148.525-56.535 205.062 0 5.858 5.858 15.355 5.858 21.213 0s5.858-15.355 0-21.213c-33.054-33.053-77-51.256-123.744-51.256z"/></g></svg>