<svg height="512" viewBox="0 0 60 60" width="512" xmlns="http://www.w3.org/2000/svg"><g id="Page-1" fill="none" fill-rule="evenodd"><g id="013---Wireless-Power" fill="rgb(0,0,0)" fill-rule="nonzero"><path id="Shape" d="m39.882 24.528c-.1741121-.3252055-.5131184-.5281481-.882-.528h-6.557l2.494-6.649c.1151514-.3071935.0723018-.6513301-.1146652-.9209058-.186967-.2695756-.4942683-.4302991-.8223348-.4300942h-7c-.4306074-.0001037-.8129281.2754572-.949.684l-4 12c-.1015762.3049726-.0503565.6401819.1376576.9009053.1880141.2607235.4898988.4151721.8113424.4150947h6.674l-3.635 12.725c-.1350295.4735196.0947375.974866.5415793 1.1817142.4468419.2068481.9777615.0576322 1.2514207-.3517142l12-18c.2048654-.3068909.2240849-.7016597.05-1.027zm-10.161 12.587 2.24-7.84c.086285-.3016662.0259805-.6263403-.1628745-.8769024s-.4843619-.3979582-.7981255-.3980976h-6.613l3.334-10h4.836l-2.494 6.649c-.1151514.3071935-.0723018.6513301.1146652.9209058.186967.2695756.4942683.4302991.8223348.4300942h6.131z"/><path id="Shape" d="m30 8c-12.1502645 0-22 9.8497355-22 22s9.8497355 22 22 22 22-9.8497355 22-22c-.0137772-12.1445532-9.8554468-21.98622284-22-22zm0 42c-11.045695 0-20-8.954305-20-20s8.954305-20 20-20 20 8.954305 20 20c-.0126747 11.0404407-8.9595593 19.9873253-20 20z"/><path id="Shape" d="m18.2 17.744c-.405398-.3749444-1.0379733-.3503219-1.413.055-3.0799975 3.3160453-4.7903041 7.675237-4.787 12.201 0 .5522847.4477153 1 1 1s1-.4477153 1-1c-.0039462-4.021441 1.5144534-7.895325 4.25-10.843.3762517-.4040449.3538697-1.0365602-.05-1.413z"/><path id="Shape" d="m47 29c-.5522847 0-1 .4477153-1 1-.0129284 5.0942581-2.444237 9.8796791-6.551 12.894-.4348199.329891-.5248048.9475009-.202193 1.3877487.3226118.4402477.9386393.5404946 1.384193.2252513 4.6202103-3.3914914 7.3551569-8.7756506 7.369-14.507 0-.5522847-.4477153-1-1-1z"/><path id="Shape" d="m19.073 21.257c-1.9856236 2.4818246-3.0691659 5.5646137-3.073 8.743 0 .5522847.4477153 1 1 1s1-.4477153 1-1c.0031159-2.7237517.9319113-5.3655646 2.634-7.492.3454541-.4310582.2760582-1.0605459-.155-1.406-.4310583-.3454541-1.0605459-.2760582-1.406.155z"/><path id="Shape" d="m44 30c0-.5522847-.4477153-1-1-1s-1 .4477153-1 1c-.0092177 3.820972-1.8317291 7.4106997-4.911 9.673-.4456938.3264003-.5424003.9523062-.216 1.398s.9523062.5424003 1.398.216c3.5923732-2.6402124 5.7183841-6.8287768 5.729-11.287z"/><circle id="Oval" cx="30" cy="5" r="1"/><circle id="Oval" cx="30" cy="1" r="1"/><circle id="Oval" cx="30" cy="59" r="1"/><circle id="Oval" cx="30" cy="55" r="1"/><path id="Shape" d="m33.356 5.206c-.0959259.54382408.2671146 1.06246088.8109227 1.15847762.543808.09601673 1.0625055-.26693721 1.158613-.81072922.0961076-.54379201-.2667597-1.06255004-.8105357-1.1587484-.2612467-.04621666-.5301517.01327452-.7475231.1653782-.2173714.15210369-.3653911.38435194-.4114769.6456218z"/><path id="Shape" d="m36.021 1.614c.0959259-.54382408-.2671146-1.06246088-.8109227-1.15847761-.543808-.09601674-1.0625055.2669372-1.158613.81072921-.0961076.54379201.2667597 1.06255004.8105357 1.1587484.2612467.04621666.5301517-.01327452.7475231-.1653782.2173714-.15210369.3653911-.38435194.4114769-.6456218z"/><path id="Shape" d="m23.979 58.386c-.0959259.5438241.2671146 1.0624609.8109227 1.1584776.543808.0960167 1.0625055-.2669372 1.158613-.8107292.0961076-.543792-.2667597-1.06255-.8105357-1.1587484-.2612467-.0462167-.5301517.0132745-.7475231.1653782s-.3653911.3843519-.4114769.6456218z"/><path id="Shape" d="m26.644 54.794c.0959259-.5438241-.2671146-1.0624609-.8109227-1.1584776-.543808-.0960167-1.0625055.2669372-1.158613.8107292-.0961076.543792.2667597 1.06255.8105357 1.1587484.2612467.0462167.5301517-.0132745.7475231-.1653782s.3653911-.3843519.4114769-.6456218z"/><path id="Shape" d="m37.611 6.166c-.1876279.51919257.0809657 1.09221081.600048 1.28014364s1.0922582-.08032422 1.2804958-.59929603c.1882377-.51897181-.0796826-1.09230516-.5985438-1.28084761-.2495564-.09068316-.5249323-.078394-.7654189.03415824s-.4263378.31612599-.5165811.56584176z"/><circle id="Oval" cx="39.919" cy="2.749" r="1"/><path id="Shape" d="m20.423 56.311c-.5191926-.1876279-1.0922108.0809657-1.2801436.600048-.1879329.5190823.0803242 1.0922582.599296 1.2804958.5189718.1882377 1.0923052-.0796826 1.2808476-.5985438.0906832-.2495564.078394-.5249323-.0341582-.7654189-.1125523-.2404866-.316126-.4263378-.5658418-.5165811z"/><path id="Shape" d="m22.389 53.834c.1876279-.5191926-.0809657-1.0922108-.600048-1.2801436-.5190823-.1879329-1.0922582.0803242-1.2804958.599296-.1882377.5189718.0796826 1.0923052.5985438 1.2808476.2495564.0906832.5249323.078394.7654189-.0341582.2404866-.1125523.4263378-.316126.5165811-.5658418z"/><circle id="Oval" cx="42.5" cy="8.349" r="1" transform="matrix(.966 -.259 .259 .966 -.713 11.284)"/><path id="Shape" d="m45 4.019c-.350271-.20224528-.7878822-.17357556-1.1087727.07264028-.3208905.24621585-.4618651.66148882-.3571865 1.05217455.1046786.39068572.4343954.67984374.8354013.73263786s.794328-.14117276.9965579-.49145269c.2761293-.47828031.1122682-1.08984962-.366-1.366z"/><circle id="Oval" cx="15.5" cy="55.115" r="1" transform="matrix(.966 -.259 .259 .966 -13.737 5.89)"/><circle id="Oval" cx="17.5" cy="51.651" r="1" transform="matrix(.966 -.259 .259 .966 -12.772 6.289)"/><path id="Shape" d="m45.427 11.615c.4230227.3550222 1.053748.299919 1.4087991-.1230795.355051-.4229984.299991-1.0537274-.1229832-1.4088074-.4229742-.35508002-1.053707-.30006303-1.4088159.1228869-.1705604.2031447-.2534235.4657308-.2303558.7299778.0230677.2642471.1501761.5085035.3533558.6790222z"/><path id="Shape" d="m47.875 7.142c-.3550222.42302272-.299919 1.05374797.1230795 1.40879906.4229984.35505109 1.0537274.299991 1.4088074-.1229832.35508-.42297419.300063-1.05370696-.1228869-1.40881586-.2031447-.17056039-.4657308-.25342346-.7299778-.23035576-.2642471.0230677-.5085035.15017607-.6790222.35335576z"/><path id="Shape" d="m12.125 52.858c.3550222-.4230227.299919-1.053748-.1230795-1.4087991-.4229984-.355051-1.0537274-.299991-1.4088074.1229832s-.300063 1.053707.1228869 1.4088159c.2031447.1705604.4657308.2534235.7299778.2303558.2642471-.0230677.5085035-.1501761.6790222-.3533558z"/><path id="Shape" d="m14.573 48.385c-.4230227-.3550222-1.053748-.299919-1.4087991.1230795-.355051.4229984-.299991 1.0537274.1229832 1.4088074s1.053707.300063 1.4088159-.1228869c.1705604-.2031447.2534235-.4657308.2303558-.7299778-.0230677-.2642471-.1501761-.5085035-.3533558-.6790222z"/><path id="Shape" d="m48.508 13.164c-.4231657.3548267-.478599.9855005-.1238186 1.4087051.3547804.4232045.9854481.4787069 1.4086915.1239728.4232434-.354734.4788148-.9853957.1241271-1.4086779-.1703768-.2033267-.4145607-.3306256-.6788128-.3538812-.2642521-.0232557-.5269165.0594376-.7301872.2298812z"/><path id="Shape" d="m51.573 10.593c-.3100427.2599074-.4329335.6810226-.3113425 1.0668903.1215911.3858678.4637051.660455.8667419.6956635.4030368.0352084.7875802-.1758994.9742361-.5348394.1866559-.3589399.1386448-.7949847-.1216355-1.1047144-.3550088-.4224551-.9851179-.4775001-1.408-.123z"/><path id="Shape" d="m8.427 49.407c.31004267-.2599074.4329335-.6810226.31134246-1.0668903-.12159103-.3858678-.46370506-.660455-.86674188-.6956635-.40303682-.0352084-.78758018.1758994-.9742361.5348394-.18665591.3589399-.13864483.7949847.12163552 1.1047144.35500883.4224551.98511795.4775001 1.408.123z"/><path id="Shape" d="m11.492 46.836c.4231657-.3548267.478599-.9855005.1238186-1.4087051-.3547804-.4232045-.9854481-.4787069-1.4086915-.1239728-.4232434.354734-.47881479.9853957-.1241271 1.4086779.1703768.2033267.4145607.3306256.6788128.3538812.2642521.0232557.5269165-.0594376.7301872-.2298812z"/><circle id="Oval" cx="51.651" cy="17.499" r="1" transform="matrix(.259 -.966 .966 .259 21.38 62.861)"/><path id="Shape" d="m55.981 15c-.2022299-.3502799-.595552-.5442468-.9965579-.4914527s-.7307227.3419521-.8354013.7326379c-.1046786.3906857.036296.8059587.3571865 1.0521745.3208905.2462159.7585017.2748856 1.1087727.0726403.4782682-.2761504.6421293-.8877197.366-1.366z"/><path id="Shape" d="m4.019 45c.20222987.3502799.59555204.5442468.99655793.4914527.4010059-.0527941.73072263-.3419521.83540124-.7326379.1046786-.3906857-.03629601-.8059587-.35718649-1.0521745-.32089049-.2462159-.75850165-.2748856-1.10877268-.0726403-.47826816.2761504-.64212934.8877197-.366 1.366z"/><circle id="Oval" cx="8.35" cy="42.5" r="1" transform="matrix(.259 -.966 .966 .259 -34.863 39.566)"/><path id="Shape" d="m53.15 20.51c-.5188612.1885424-.7867815.7618758-.5985438 1.2808476.1882376.5189718.7614135.7872289 1.2804958.599296.5190823-.1879328.7876759-.760951.600048-1.2801436-.0902433-.2497158-.2760945-.4532895-.5165811-.5658418-.2404866-.1125522-.5158625-.1248414-.7654189-.0341582z"/><path id="Shape" d="m57.593 21.021c.5188612-.1885424.7867815-.7618758.5985438-1.2808476-.1882376-.5189718-.7614135-.7872289-1.2804958-.599296-.5190823.1879328-.7876759.760951-.600048 1.2801436.0902433.2497158.2760945.4532895.5165811.5658418.2404866.1125522.5158625.1248414.7654189.0341582z"/><path id="Shape" d="m3.091 40.858c.51886116-.1885424.78678152-.7618758.59854385-1.2808476-.18823768-.5189718-.76141357-.7872289-1.28049585-.599296-.51908228.1879328-.78767592.760951-.600048 1.2801436.0902433.2497158.27609446.4532895.51658108.5658418.24048662.1125522.51586254.1248414.76541892.0341582z"/><path id="Shape" d="m6.85 39.49c.51886116-.1885424.78678152-.7618758.59854385-1.2808476-.18823768-.5189718-.76141357-.7872289-1.28049585-.599296-.51908228.1879328-.78767592.760951-.600048 1.2801436.0902433.2497158.27609446.4532895.51658108.5658418.24048662.1125522.51586254.1248414.76541892.0341582z"/><path id="Shape" d="m54.447 24.674c-.398406.0700767-.715351.3732796-.8030071.7681904-.087656.3949108.0712446.8037344.4025882 1.0357894s.7698576.2416279 1.1110124.0242539c.3411548-.2173741.5177451-.6188738.4474065-1.0172337-.0959871-.5436188-.6143182-.9066296-1.158-.811z"/><path id="Shape" d="m59.544 24.791c-.0700767-.398406-.3732796-.715351-.7681904-.8030071-.3949108-.087656-.8037344.0712446-1.0357894.4025882s-.2416279.7698576-.0242539 1.1110124c.2173741.3411548.6188738.5177451 1.0172337.4474065.5436188-.0959871.9066296-.6143182.811-1.158z"/><path id="Shape" d="m2.425 34.862c-.09619836-.543776-.61495639-.9066433-1.1587484-.8105357-.54379201.0961075-.90674595.614805-.81072921 1.158613.09601673.5438081.61465353.9068486 1.15847761.8109227.26126986-.0460858.49351811-.1941055.6456218-.4114769.15210368-.2173714.21159486-.4862764.1653782-.7475231z"/><path id="Shape" d="m5.553 35.326c.39840604-.0700767.71535102-.3732796.80300708-.7681904.08765605-.3949108-.07124454-.8037344-.40258816-1.0357894s-.76985759-.2416279-1.11101243-.0242539c-.34115484.2173741-.51774512.6188738-.44740649 1.0172337.09598708.5436188.61431821.9066296 1.158.811z"/><circle id="Oval" cx="55" cy="30" r="1"/><circle id="Oval" cx="59" cy="30" r="1"/><circle id="Oval" cx="1" cy="30" r="1"/><circle id="Oval" cx="5" cy="30" r="1"/><path id="Shape" d="m53.635 34.168c-.0953721.5438142.2680242 1.0620217.8117967 1.1576317.5437724.09561 1.0621388-.2675595 1.1579867-.8112901s-.2670948-1.0622558-.8107834-1.1583416c-.2613932-.0461959-.5304284.0134302-.7478268.1657404s-.3653204.384806-.4111732.6462596z"/><path id="Shape" d="m59.544 35.209c.0954926-.5439462-.2680348-1.062319-.8119761-1.1578394-.5439413-.0955205-1.0623327.2679802-1.1578811.8119166s.2679257 1.0623465.8118572 1.1579228c.2612409.0459037.5300168-.0138611.747189-.1661442.2171723-.1522832.3649476-.3846079.410811-.6458558z"/><path id="Shape" d="m1.267 25.949c.39835987.0703386.79985958-.1062517 1.01723365-.4474065s.20780113-.7796688-.02425386-1.1110124c-.23205498-.3313436-.6408786-.4902442-1.03578938-.4025882-.39491079.0876561-.69811372.4046011-.76819041.8030071-.09562963.5436818.26738121 1.0620129.811 1.158z"/><path id="Shape" d="m5.553 24.674c-.54394621-.0954926-1.06231897.2680348-1.15783944.8119761-.09552048.5439413.26798024 1.0623327.81191664 1.1578811s1.06234648-.2679257 1.1579228-.8118572c.04590365-.2612409-.0138611-.5300168-.16614423-.747189-.15228313-.2171723-.38460783-.3649476-.64585577-.410811z"/><path id="Shape" d="m54.432 38.893c.1876279-.5191926-.0809657-1.0922108-.600048-1.2801436-.5190823-.1879329-1.0922582.0803242-1.2804958.599296-.1882377.5189718.0796826 1.0923052.5985438 1.2808476.2495564.0906832.5249323.078394.7654189-.0341582.2404866-.1125523.4263378-.316126.5165811-.5658418z"/><path id="Shape" d="m56.909 40.858c.5192854.1878617 1.0925488-.0807577 1.2804937-.600013s-.0805827-1.0925617-.5998079-1.2805897c-.5192252-.1880281-1.0925746.0804076-1.2806858.5996027-.0903728.2494328-.077924.5245545.0346061.7648063s.3159177.4259408.5653939.5161937z"/><path id="Shape" d="m2.407 21.021c.51919257.1876279 1.09221081-.0809657 1.28014364-.600048s-.08032422-1.0922582-.59929603-1.2804958c-.51897181-.1882377-1.09230516.0796826-1.28084761.5985438-.09068316.2495564-.078394.5249323.03415824.7654189s.31612599.4263378.56584176.5165811z"/><path id="Shape" d="m5.568 21.107c-.18762792.5191926.08096572 1.0922108.600048 1.2801436.51908228.1879329 1.09225817-.0803242 1.28049585-.599296.18823767-.5189718-.07968269-1.0923052-.59854385-1.2808476-.24955638-.0906832-.5249323-.078394-.76541892.0341582-.24048662.1125523-.42633778.316126-.51658108.5658418z"/><circle id="Oval" cx="51.651" cy="42.5" r="1" transform="matrix(.966 -.259 .259 .966 -9.24 14.816)"/><path id="Shape" d="m54.615 45.366c.350271.2022453.7878822.1735756 1.1087727-.0726403.3208905-.2462158.4618651-.6614888.3571865-1.0521745-.1046786-.3906858-.4343954-.6798438-.8354013-.7326379s-.794328.1411728-.9965579.4914527c-.2761293.4782803-.1122682 1.0898496.366 1.366z"/><path id="Shape" d="m5.385 14.634c-.35027103-.2022453-.78788219-.1735756-1.10877268.0726403-.32089048.2462158-.46186509.6614888-.35718649 1.0521745.10467861.3906858.43439534.6798438.83540124.7326379.40100589.0527941.79432806-.1411728.99655793-.4914527.27612934-.4782803.11226816-1.0898496-.366-1.366z"/><circle id="Oval" cx="8.349" cy="17.5" r="1" transform="matrix(.966 -.259 .259 .966 -4.245 2.757)"/><path id="Shape" d="m49.794 45.3c-.3097297-.2602803-.7457745-.3082914-1.1047144-.1216355-.35894.1866559-.5700478.5711993-.5348394.9742361.0352085.4030368.3097957.7451508.6956635.8667419.3858677.121591.8069829-.0012998 1.0668903-.3113425.3545001-.4228821.2994551-1.0529912-.123-1.408z"/><path id="Shape" d="m52.981 49.284c.2602803-.3097297.3082914-.7457745.1216355-1.1047144-.1866559-.35894-.5711993-.5700478-.9742361-.5348394-.4030368.0352085-.7451508.3097957-.8667419.6956635-.121591.3858677.0012998.8069829.3113425 1.0668903.4228821.3545001 1.0529912.2994551 1.408-.123z"/><path id="Shape" d="m7.019 10.716c-.26028035.3097297-.30829143.7457745-.12163552 1.1047144.18665592.35894.57119928.5700478.9742361.5348394.40303682-.0352085.74515085-.3097957.86674188-.6956635.12159104-.3858677-.00129979-.8069829-.31134246-1.0668903-.42288205-.3545001-1.05299117-.2994551-1.408.123z"/><path id="Shape" d="m10.206 14.7c.3097297.2602803.7457745.3082914 1.1047144.1216355.35894-.1866559.5700478-.5711993.5348394-.9742361-.0352085-.4030368-.3097957-.7451508-.6956635-.8667419-.3858677-.121591-.8069829.0012998-1.0668903.3113425-.35450015.4228821-.29945511 1.0529912.123 1.408z"/><path id="Shape" d="m46.712 49.917c.3100427-.2599074.4329335-.6810226.3113425-1.0668903-.1215911-.3858678-.4637051-.660455-.8667419-.6956635-.4030368-.0352084-.7875802.1758994-.9742361.5348394-.1866559.3589399-.1386448.7949847.1216355 1.1047144.3550088.4224551.9851179.4775001 1.408.123z"/><path id="Shape" d="m48 51.449c-.4231657.3548267-.478599.9855005-.1238186 1.4087051.3547804.4232045.9854481.4787069 1.4086915.1239728.4232434-.354734.4788148-.9853957.1241271-1.4086779-.1703768-.2033267-.4145607-.3306256-.6788128-.3538812-.2642521-.0232557-.5269165.0594376-.7301872.2298812z"/><path id="Shape" d="m12 8.551c.4231657-.35482672.478599-.98550051.1238186-1.40870506s-.9854481-.47870689-1.4086915-.12397285-.4788148.98539567-.1241271 1.40867791c.1703768.20332666.4145607.33062556.6788128.35388124s.5269165-.05943767.7301872-.22988124z"/><path id="Shape" d="m13.288 10.083c-.3100427.2599074-.4329335.6810226-.3113425 1.0668903.1215911.3858678.4637051.660455.8667419.6956635.4030368.0352084.7875802-.1758994.9742361-.5348394.1866559-.3589399.1386448-.7949847-.1216355-1.1047144-.3550088-.42245511-.9851179-.47750015-1.408-.123z"/><circle id="Oval" cx="42.5" cy="51.65" r="1" transform="matrix(.259 -.966 .966 .259 -18.39 79.334)"/><circle id="Oval" cx="44.5" cy="55.115" r="1" transform="matrix(.259 -.966 .966 .259 -20.254 83.834)"/><path id="Shape" d="m16 5.751c.3502799-.20222987.5442468-.59555204.4914527-.99655793-.0527941-.4010059-.3419521-.73072263-.7326379-.83540124-.3906857-.1046786-.8059587.03629601-1.0521745.35718649-.2462159.32089049-.2748856.75850165-.0726403 1.10877268.2761504.47826816.8877197.64212934 1.366.366z"/><circle id="Oval" cx="17.5" cy="8.349" r="1" transform="matrix(.259 -.966 .966 .259 4.906 23.092)"/><path id="Shape" d="m39.49 53.15c-.1885424-.5188612-.7618758-.7867815-1.2808476-.5985438-.5189718.1882376-.7872289.7614135-.599296 1.2804958.1879328.5190823.760951.7876759 1.2801436.600048.2497158-.0902433.4532895-.2760945.5658418-.5165811.1125522-.2404866.1248414-.5158625.0341582-.7654189z"/><path id="Shape" d="m40.261 58.191c.5188612-.1885424.7867815-.7618758.5985438-1.2808476-.1882376-.5189718-.7614135-.7872289-1.2804958-.599296-.5190823.1879328-.7876759.760951-.600048 1.2801436.0902433.2497158.2760945.4532895.5165811.5658418.2404866.1125522.5158625.1248414.7654189.0341582z"/><circle id="Oval" cx="20.081" cy="2.749" r="1"/><path id="Shape" d="m20.51 6.85c.1885424.51886116.7618758.78678152 1.2808476.59854385.5189718-.18823768.7872289-.76141357.599296-1.28049585-.1879328-.51908228-.760951-.78767592-1.2801436-.600048-.2497158.0902433-.4532895.27609446-.5658418.51658108-.1125522.24048662-.1248414.51586254-.0341582.76541892z"/><path id="Shape" d="m35.326 54.447c-.0700767-.398406-.3732796-.715351-.7681904-.8030071-.3949108-.087656-.8037344.0712446-1.0357894.4025882s-.2416279.7698576-.0242539 1.1110124c.2173741.3411548.6188738.5177451 1.0172337.4474065.5436188-.0959871.9066296-.6143182.811-1.158z"/><path id="Shape" d="m35.209 59.544c.398406-.0700767.715351-.3732796.8030071-.7681904.087656-.3949108-.0712446-.8037344-.4025882-1.0357894s-.7698576-.2416279-1.1110124-.0242539c-.3411548.2173741-.5177451.6188738-.4474065 1.0172337.0959871.5436188.6143182.9066296 1.158.811z"/><path id="Shape" d="m24.791.456c-.398406.07007669-.715351.37327962-.8030071.76819041-.087656.39491078.0712446.8037344.4025882 1.03578938.3313436.23205499.7698576.24162793 1.1110124.02425386s.5177451-.61887378.4474065-1.01723365c-.0959871-.54361879-.6143182-.90662963-1.158-.811z"/><path id="Shape" d="m24.674 5.553c.0700767.39840604.3732796.71535102.7681904.80300708.3949108.08765605.8037344-.07124454 1.0357894-.40258816s.2416279-.76985759.0242539-1.11101243c-.2173741-.34115484-.6188738-.51774512-1.0172337-.44740649-.5436188.09598708-.9066296.61431821-.811 1.158z"/></g></g></svg>