<?xml version="1.0" encoding="iso-8859-1"?>
<!-- Generator: Adobe Illustrator 19.0.0, SVG Export Plug-In . SVG Version: 6.00 Build 0)  -->
<svg version="1.1" id="Capa_1" xmlns="http://www.w3.org/2000/svg" xmlns:xlink="http://www.w3.org/1999/xlink" x="0px" y="0px"
	 viewBox="0 0 461.192 461.192" style="enable-background:new 0 0 461.192 461.192;" xml:space="preserve">
<g>
	<g>
		<path d="M389.833,296.806l-250.3-293.3c-3.6-4.2-9.9-4.7-14.1-1.1c-1.9,1.6-3.1,3.8-3.4,6.2l-53,382.1c-0.8,5.5,3.1,10.5,8.5,11.3
			c2.6,0.4,5.3-0.3,7.4-1.9l101.9-77.6l38.6,131.5c1.6,5.3,7.1,8.3,12.4,6.8l55-16.2c5.3-1.6,8.3-7.1,6.8-12.4l-37.8-128.6
			l119.6,9.7c5.5,0.4,10.3-3.7,10.8-9.2C392.433,301.406,391.633,298.806,389.833,296.806z M248.933,282.306
			c-5.5-0.4-10.3,3.7-10.8,9.2c-0.1,1.2,0,2.4,0.4,3.6l39.1,133l-35.8,10.5l-39.9-135.8c-1.6-5.3-7.1-8.3-12.4-6.8
			c-1.2,0.3-2.3,0.9-3.2,1.6l-94.2,71.7l46.7-336l220.2,257.9L248.933,282.306z"/>
	</g>
</g>
<g>
</g>
<g>
</g>
<g>
</g>
<g>
</g>
<g>
</g>
<g>
</g>
<g>
</g>
<g>
</g>
<g>
</g>
<g>
</g>
<g>
</g>
<g>
</g>
<g>
</g>
<g>
</g>
<g>
</g>
</svg>
